CddbId:c90f2b63:[150, 1258, 4226, 7395, 11136, 14849, 18144, 21473, 24720, 28021, 31024, 34646, 37878, 40915, 44036, 47206, 50508, 53998, 57327, 60587, 64412, 67853, 71280, 74512, 77891, 81736, 84578, 88528, 91941, 94776, 97876, 101262, 104905, 108395, 111683, 114992, 118454, 121937, 125364, 129049, 132469, 135339, 138955, 141999, 145113, 149021, 153089, 156669, 160013, 163015, 166735, 169710, 174230, 177574, 181308, 184087, 187194, 192029, 194286, 197302, 201022, 203432, 206448, 209144, 212523, 215950, 219509, 222839, 226601, 230160, 233539, 237398, 239126, 241578, 244155, 246482, 248369, 250334, 253650, 255914, 258164, 261082, 262190, 264753, 266746, 268675, 271169, 271803, 272458, 273064, 274290, 275697, 277195, 277954, 279828, 281674, 285220, 287309, 289378]:291375:74:c90f2b63 99 150 1258 4226 7395 11136 14849 18144 21473 24720 28021 31024 34646 37878 40915 44036 47206 50508 53998 57327 60587 64412 67853 71280 74512 77891 81736 84578 88528 91941 94776 97876 101262 104905 108395 111683 114992 118454 121937 125364 129049 132469 135339 138955 141999 145113 149021 153089 156669 160013 163015 166735 169710 174230 177574 181308 184087 187194 192029 194286 197302 201022 203432 206448 209144 212523 215950 219509 222839 226601 230160 233539 237398 239126 241578 244155 246482 248369 250334 253650 255914 258164 261082 262190 264753 266746 268675 271169 271803 272458 273064 274290 275697 277195 277954 279828 281674 285220 287309 289378 3885: 99 0 0 0 0 0 0 0 0 0 0 0 0 0 0 0 0 0 0 0 0 0 0 0 0 0 0 0 0 0 0 0 0 0 0 0 0 0 0 0 0 0 0 0 0 0 0 0 0 0 0 0 0 0 0 0 0 0 0 0 0 0 0 0 0 0 0 0 0 0 0 0 0 0 0 0 0 0 0 0 0 0 0 0 0 0 0 0 0 0 0 0 0 0 0 0 0 0 0 0 3885
num_tracks: 99
offsets: [150, 1258, 4226, 7395, 11136, 14849, 18144, 21473, 24720, 28021, 31024, 34646, 37878, 40915, 44036, 47206, 50508, 53998, 57327, 60587, 64412, 67853, 71280, 74512, 77891, 81736, 84578, 88528, 91941, 94776, 97876, 101262, 104905, 108395, 111683, 114992, 118454, 121937, 125364, 129049, 132469, 135339, 138955, 141999, 145113, 149021, 153089, 156669, 160013, 163015, 166735, 169710, 174230, 177574, 181308, 184087, 187194, 192029, 194286, 197302, 201022, 203432, 206448, 209144, 212523, 215950, 219509, 222839, 226601, 230160, 233539, 237398, 239126, 241578, 244155, 246482, 248369, 250334, 253650, 255914, 258164, 261082, 262190, 264753, 266746, 268675, 271169, 271803, 272458, 273064, 274290, 275697, 277195, 277954, 279828, 281674, 285220, 287309, 289378]
extents: [0, 0, 0, 0, 0, 0, 0, 0, 0, 0, 0, 0, 0, 0, 0, 0, 0, 0, 0, 0, 0, 0, 0, 0, 0, 0, 0, 0, 0, 0, 0, 0, 0, 0, 0, 0, 0, 0, 0, 0, 0, 0, 0, 0, 0, 0, 0, 0, 0, 0, 0, 0, 0, 0, 0, 0, 0, 0, 0, 0, 0, 0, 0, 0, 0, 0, 0, 0, 0, 0, 0, 0, 0, 0, 0, 0, 0, 0, 0, 0, 0, 0, 0, 0, 0, 0, 0, 0, 0, 0, 0, 0, 0, 0, 0, 0, 0, 0, 0]
total_length: 3885
cddb: [3373214563, 99, 150, 1258, 4226, 7395, 11136, 14849, 18144, 21473, 24720, 28021, 31024, 34646, 37878, 40915, 44036, 47206, 50508, 53998, 57327, 60587, 64412, 67853, 71280, 74512, 77891, 81736, 84578, 88528, 91941, 94776, 97876, 101262, 104905, 108395, 111683, 114992, 118454, 121937, 125364, 129049, 132469, 135339, 138955, 141999, 145113, 149021, 153089, 156669, 160013, 163015, 166735, 169710, 174230, 177574, 181308, 184087, 187194, 192029, 194286, 197302, 201022, 203432, 206448, 209144, 212523, 215950, 219509, 222839, 226601, 230160, 233539, 237398, 239126, 241578, 244155, 246482, 248369, 250334, 253650, 255914, 258164, 261082, 262190, 264753, 266746, 268675, 271169, 271803, 272458, 273064, 274290, 275697, 277195, 277954, 279828, 281674, 285220, 287309, 289378, 3885]
musicbrainz: ('99 150 1258 4226 7395 11136 14849 18144 21473 24720 28021 31024 34646 37878 40915 44036 47206 50508 53998 57327 60587 64412 67853 71280 74512 77891 81736 84578 88528 91941 94776 97876 101262 104905 108395 111683 114992 118454 121937 125364 129049 132469 135339 138955 141999 145113 149021 153089 156669 160013 163015 166735 169710 174230 177574 181308 184087 187194 192029 194286 197302 201022 203432 206448 209144 212523 215950 219509 222839 226601 230160 233539 237398 239126 241578 244155 246482 248369 250334 253650 255914 258164 261082 262190 264753 266746 268675 271169 271803 272458 273064 274290 275697 277195 277954 279828 281674 285220 287309 289378 291375', 'bD.Cafa2PqG.wyiRUcgNf8UC58Y-')

CD record:
Device type    : Removable CD-ROM
Version        : 0
Response Format: 2
Capabilities   : 
Vendor_info    : 'FREECOM_'
Identification : 'DVD+/-RW16H4    '
Revision       : 'FR00'
Device seems to be: Generic mmc2 DVD-R/DVD-RW.
Using generic SCSI-3/mmc   CD-R/CD-RW driver (mmc_cdr).
Driver flags   : MMC-3 SWABAUDIO BURNFREE 
Supported modes: TAO PACKET SAO SAO/R96R RAW/R96R
first: 1 last 99
track:   1 lba:         0 (        0) 00:02:00 adr: 1 control: 0 mode: -1
track:   2 lba:      1108 (     4432) 00:16:58 adr: 1 control: 0 mode: -1
track:   3 lba:      4076 (    16304) 00:56:26 adr: 1 control: 0 mode: -1
track:   4 lba:      7245 (    28980) 01:38:45 adr: 1 control: 0 mode: -1
track:   5 lba:     10986 (    43944) 02:28:36 adr: 1 control: 0 mode: -1
track:   6 lba:     14699 (    58796) 03:17:74 adr: 1 control: 0 mode: -1
track:   7 lba:     17994 (    71976) 04:01:69 adr: 1 control: 0 mode: -1
track:   8 lba:     21323 (    85292) 04:46:23 adr: 1 control: 0 mode: -1
track:   9 lba:     24570 (    98280) 05:29:45 adr: 1 control: 0 mode: -1
track:  10 lba:     27871 (   111484) 06:13:46 adr: 1 control: 0 mode: -1
track:  11 lba:     30874 (   123496) 06:53:49 adr: 1 control: 0 mode: -1
track:  12 lba:     34496 (   137984) 07:41:71 adr: 1 control: 0 mode: -1
track:  13 lba:     37728 (   150912) 08:25:03 adr: 1 control: 0 mode: -1
track:  14 lba:     40765 (   163060) 09:05:40 adr: 1 control: 0 mode: -1
track:  15 lba:     43886 (   175544) 09:47:11 adr: 1 control: 0 mode: -1
track:  16 lba:     47056 (   188224) 10:29:31 adr: 1 control: 0 mode: -1
track:  17 lba:     50358 (   201432) 11:13:33 adr: 1 control: 0 mode: -1
track:  18 lba:     53848 (   215392) 11:59:73 adr: 1 control: 0 mode: -1
track:  19 lba:     57177 (   228708) 12:44:27 adr: 1 control: 0 mode: -1
track:  20 lba:     60437 (   241748) 13:27:62 adr: 1 control: 0 mode: -1
track:  21 lba:     64262 (   257048) 14:18:62 adr: 1 control: 0 mode: -1
track:  22 lba:     67703 (   270812) 15:04:53 adr: 1 control: 0 mode: -1
track:  23 lba:     71130 (   284520) 15:50:30 adr: 1 control: 0 mode: -1
track:  24 lba:     74362 (   297448) 16:33:37 adr: 1 control: 0 mode: -1
track:  25 lba:     77741 (   310964) 17:18:41 adr: 1 control: 0 mode: -1
track:  26 lba:     81586 (   326344) 18:09:61 adr: 1 control: 0 mode: -1
track:  27 lba:     84428 (   337712) 18:47:53 adr: 1 control: 0 mode: -1
track:  28 lba:     88378 (   353512) 19:40:28 adr: 1 control: 0 mode: -1
track:  29 lba:     91791 (   367164) 20:25:66 adr: 1 control: 0 mode: -1
track:  30 lba:     94626 (   378504) 21:03:51 adr: 1 control: 0 mode: -1
track:  31 lba:     97726 (   390904) 21:45:01 adr: 1 control: 0 mode: -1
track:  32 lba:    101112 (   404448) 22:30:12 adr: 1 control: 0 mode: -1
track:  33 lba:    104755 (   419020) 23:18:55 adr: 1 control: 0 mode: -1
track:  34 lba:    108245 (   432980) 24:05:20 adr: 1 control: 0 mode: -1
track:  35 lba:    111533 (   446132) 24:49:08 adr: 1 control: 0 mode: -1
track:  36 lba:    114842 (   459368) 25:33:17 adr: 1 control: 0 mode: -1
track:  37 lba:    118304 (   473216) 26:19:29 adr: 1 control: 0 mode: -1
track:  38 lba:    121787 (   487148) 27:05:62 adr: 1 control: 0 mode: -1
track:  39 lba:    125214 (   500856) 27:51:39 adr: 1 control: 0 mode: -1
track:  40 lba:    128899 (   515596) 28:40:49 adr: 1 control: 0 mode: -1
track:  41 lba:    132319 (   529276) 29:26:19 adr: 1 control: 0 mode: -1
track:  42 lba:    135189 (   540756) 30:04:39 adr: 1 control: 0 mode: -1
track:  43 lba:    138805 (   555220) 30:52:55 adr: 1 control: 0 mode: -1
track:  44 lba:    141849 (   567396) 31:33:24 adr: 1 control: 0 mode: -1
track:  45 lba:    144963 (   579852) 32:14:63 adr: 1 control: 0 mode: -1
track:  46 lba:    148871 (   595484) 33:06:71 adr: 1 control: 0 mode: -1
track:  47 lba:    152939 (   611756) 34:01:14 adr: 1 control: 0 mode: -1
track:  48 lba:    156519 (   626076) 34:48:69 adr: 1 control: 0 mode: -1
track:  49 lba:    159863 (   639452) 35:33:38 adr: 1 control: 0 mode: -1
track:  50 lba:    162865 (   651460) 36:13:40 adr: 1 control: 0 mode: -1
track:  51 lba:    166585 (   666340) 37:03:10 adr: 1 control: 0 mode: -1
track:  52 lba:    169560 (   678240) 37:42:60 adr: 1 control: 0 mode: -1
track:  53 lba:    174080 (   696320) 38:43:05 adr: 1 control: 0 mode: -1
track:  54 lba:    177424 (   709696) 39:27:49 adr: 1 control: 0 mode: -1
track:  55 lba:    181158 (   724632) 40:17:33 adr: 1 control: 0 mode: -1
track:  56 lba:    183937 (   735748) 40:54:37 adr: 1 control: 0 mode: -1
track:  57 lba:    187044 (   748176) 41:35:69 adr: 1 control: 0 mode: -1
track:  58 lba:    191879 (   767516) 42:40:29 adr: 1 control: 0 mode: -1
track:  59 lba:    194136 (   776544) 43:10:36 adr: 1 control: 0 mode: -1
track:  60 lba:    197152 (   788608) 43:50:52 adr: 1 control: 0 mode: -1
track:  61 lba:    200872 (   803488) 44:40:22 adr: 1 control: 0 mode: -1
track:  62 lba:    203282 (   813128) 45:12:32 adr: 1 control: 0 mode: -1
track:  63 lba:    206298 (   825192) 45:52:48 adr: 1 control: 0 mode: -1
track:  64 lba:    208994 (   835976) 46:28:44 adr: 1 control: 0 mode: -1
track:  65 lba:    212373 (   849492) 47:13:48 adr: 1 control: 0 mode: -1
track:  66 lba:    215800 (   863200) 47:59:25 adr: 1 control: 0 mode: -1
track:  67 lba:    219359 (   877436) 48:46:59 adr: 1 control: 0 mode: -1
track:  68 lba:    222689 (   890756) 49:31:14 adr: 1 control: 0 mode: -1
track:  69 lba:    226451 (   905804) 50:21:26 adr: 1 control: 0 mode: -1
track:  70 lba:    230010 (   920040) 51:08:60 adr: 1 control: 0 mode: -1
track:  71 lba:    233389 (   933556) 51:53:64 adr: 1 control: 0 mode: -1
track:  72 lba:    237248 (   948992) 52:45:23 adr: 1 control: 0 mode: -1
track:  73 lba:    238976 (   955904) 53:08:26 adr: 1 control: 0 mode: -1
track:  74 lba:    241428 (   965712) 53:41:03 adr: 1 control: 0 mode: -1
track:  75 lba:    244005 (   976020) 54:15:30 adr: 1 control: 0 mode: -1
track:  76 lba:    246332 (   985328) 54:46:32 adr: 1 control: 0 mode: -1
track:  77 lba:    248219 (   992876) 55:11:44 adr: 1 control: 0 mode: -1
track:  78 lba:    250184 (  1000736) 55:37:59 adr: 1 control: 0 mode: -1
track:  79 lba:    253500 (  1014000) 56:22:00 adr: 1 control: 0 mode: -1
track:  80 lba:    255764 (  1023056) 56:52:14 adr: 1 control: 0 mode: -1
track:  81 lba:    258014 (  1032056) 57:22:14 adr: 1 control: 0 mode: -1
track:  82 lba:    260932 (  1043728) 58:01:07 adr: 1 control: 0 mode: -1
track:  83 lba:    262040 (  1048160) 58:15:65 adr: 1 control: 0 mode: -1
track:  84 lba:    264603 (  1058412) 58:50:03 adr: 1 control: 0 mode: -1
track:  85 lba:    266596 (  1066384) 59:16:46 adr: 1 control: 0 mode: -1
track:  86 lba:    268525 (  1074100) 59:42:25 adr: 1 control: 0 mode: -1
track:  87 lba:    271019 (  1084076) 60:15:44 adr: 1 control: 0 mode: -1
track:  88 lba:    271653 (  1086612) 60:24:03 adr: 1 control: 0 mode: -1
track:  89 lba:    272308 (  1089232) 60:32:58 adr: 1 control: 0 mode: -1
track:  90 lba:    272914 (  1091656) 60:40:64 adr: 1 control: 0 mode: -1
track:  91 lba:    274140 (  1096560) 60:57:15 adr: 1 control: 0 mode: -1
track:  92 lba:    275547 (  1102188) 61:15:72 adr: 1 control: 0 mode: -1
track:  93 lba:    277045 (  1108180) 61:35:70 adr: 1 control: 0 mode: -1
track:  94 lba:    277804 (  1111216) 61:46:04 adr: 1 control: 0 mode: -1
track:  95 lba:    279678 (  1118712) 62:11:03 adr: 1 control: 0 mode: -1
track:  96 lba:    281524 (  1126096) 62:35:49 adr: 1 control: 0 mode: -1
track:  97 lba:    285070 (  1140280) 63:22:70 adr: 1 control: 0 mode: -1
track:  98 lba:    287159 (  1148636) 63:50:59 adr: 1 control: 0 mode: -1
track:  99 lba:    289228 (  1156912) 64:18:28 adr: 1 control: 0 mode: -1
track:lout lba:    291225 (  1164900) 64:45:00 adr: 1 control: 0 mode: -1
